<svg xmlns="http://www.w3.org/2000/svg" version="1.1" xlink="http://www.w3.org/1999/xlink" xmlns:svgjs="http://svgjs.com/svgjs" width="100%" height="100%" viewBox="1.309999942779541 -14.420000076293945 204.04000854492188 14.560001373291016"><g fill="#7d0633"><path d="M14.54 -14.4L8.56 -4.47L4.14 -14.4L2.43 -14.4L1.31 0L3.21 0L4 -10.29L7.68 -2.31L9.11 -2.31L14.01 -10.35L13.19 0L15.09 0L16.21 -14.4Z M26.81 -6.72C26.81 -9.05 25.58 -10.21 23.11 -10.21C22.39 -10.21 21.65 -10.1 20.89 -9.87C20.13 -9.65 19.49 -9.35 18.97 -8.98L19.5 -7.53C20.04 -7.87 20.6 -8.13 21.17 -8.31C21.75 -8.49 22.3 -8.58 22.83 -8.58C23.58 -8.58 24.11 -8.4 24.43 -8.03C24.75 -7.67 24.88 -7.11 24.83 -6.33L24.79 -5.82L24.05 -5.82C22.6 -5.82 21.44 -5.72 20.57 -5.51C19.71 -5.31 19.08 -4.98 18.68 -4.53C18.29 -4.08 18.09 -3.48 18.09 -2.74C18.09 -1.89 18.41 -1.2 19.06 -0.66C19.71 -0.13 20.53 0.14 21.52 0.14C22.17 0.14 22.76 0 23.27 -0.3C23.78 -0.59 24.18 -1.01 24.46 -1.57L24.34 0L26.32 0L26.79 -6.11C26.8 -6.24 26.81 -6.45 26.81 -6.72ZM23.82 -2.14C23.32 -1.64 22.72 -1.39 22.01 -1.39C21.44 -1.39 20.99 -1.53 20.65 -1.81C20.32 -2.09 20.15 -2.46 20.15 -2.94C20.15 -3.36 20.27 -3.7 20.49 -3.94C20.71 -4.19 21.11 -4.37 21.67 -4.48C22.24 -4.6 23.05 -4.66 24.11 -4.66L24.69 -4.66L24.65 -4.08C24.59 -3.29 24.32 -2.65 23.82 -2.14Z M29.14 0L31.2 0L32 -9.96L29.93 -9.96ZM30.12 -14.42L29.95 -12.27L32.32 -12.27L32.51 -14.42Z M42.64 -9.33C42.07 -9.92 41.22 -10.21 40.1 -10.21C39.38 -10.21 38.73 -10.06 38.15 -9.77C37.57 -9.48 37.11 -9.07 36.77 -8.53L36.9 -9.96L34.87 -9.96L34.08 0L36.14 0L36.59 -5.68C36.66 -6.57 36.94 -7.28 37.44 -7.78C37.93 -8.28 38.6 -8.53 39.45 -8.53C40.78 -8.53 41.45 -7.84 41.45 -6.45C41.45 -6.26 41.44 -6.12 41.43 -6.02L40.96 0L43.02 0L43.49 -6.13C43.51 -6.26 43.51 -6.47 43.51 -6.74C43.51 -7.88 43.22 -8.75 42.64 -9.33Z M48.82 -3.7L49.19 -8.37L51.92 -8.37L52.05 -9.96L49.31 -9.96L49.56 -12.97L47.49 -12.97L47.25 -9.96L45.33 -9.96L45.21 -8.37L47.13 -8.37L46.76 -3.63C46.74 -3.53 46.74 -3.36 46.74 -3.14C46.74 -2.08 47.05 -1.27 47.67 -0.7C48.29 -0.14 49.18 0.14 50.35 0.14C50.71 0.14 51.05 0.11 51.37 0.04L51.6 -1.51C51.27 -1.47 50.96 -1.45 50.68 -1.45C49.43 -1.45 48.8 -2.08 48.8 -3.35Z M60.91 -9.05C60.16 -9.82 59.13 -10.21 57.83 -10.21C56.86 -10.21 56 -9.98 55.24 -9.52C54.49 -9.05 53.9 -8.4 53.49 -7.57C53.07 -6.73 52.86 -5.77 52.86 -4.7C52.86 -3.73 53.06 -2.88 53.47 -2.14C53.87 -1.41 54.44 -0.84 55.17 -0.45C55.91 -0.05 56.76 0.14 57.74 0.14C58.47 0.14 59.17 0.03 59.87 -0.2C60.56 -0.44 61.12 -0.74 61.54 -1.12L61.01 -2.57C60.07 -1.84 59.02 -1.47 57.87 -1.47C56.91 -1.47 56.18 -1.75 55.68 -2.3C55.18 -2.85 54.92 -3.63 54.91 -4.64L61.97 -4.64C62.01 -5 62.03 -5.34 62.03 -5.66C62.03 -7.14 61.66 -8.27 60.91 -9.05ZM55.94 -7.96C56.43 -8.45 57.09 -8.7 57.91 -8.7C58.66 -8.7 59.24 -8.46 59.66 -7.97C60.08 -7.49 60.28 -6.77 60.26 -5.82L54.99 -5.82C55.12 -6.76 55.44 -7.47 55.94 -7.96Z M72.41 -9.33C71.84 -9.92 70.99 -10.21 69.87 -10.21C69.15 -10.21 68.5 -10.06 67.92 -9.77C67.34 -9.48 66.88 -9.07 66.54 -8.53L66.67 -9.96L64.65 -9.96L63.85 0L65.91 0L66.36 -5.68C66.43 -6.57 66.71 -7.28 67.21 -7.78C67.7 -8.28 68.37 -8.53 69.22 -8.53C70.55 -8.53 71.22 -7.84 71.22 -6.45C71.22 -6.26 71.21 -6.12 71.2 -6.02L70.73 0L72.79 0L73.26 -6.13C73.28 -6.26 73.28 -6.47 73.28 -6.74C73.28 -7.88 72.99 -8.75 72.41 -9.33Z M83.47 -9.05C82.72 -9.82 81.69 -10.21 80.39 -10.21C79.42 -10.21 78.56 -9.98 77.8 -9.52C77.05 -9.05 76.46 -8.4 76.05 -7.57C75.63 -6.73 75.43 -5.77 75.43 -4.7C75.43 -3.73 75.63 -2.88 76.03 -2.14C76.43 -1.41 77 -0.84 77.73 -0.45C78.47 -0.05 79.33 0.14 80.31 0.14C81.03 0.14 81.74 0.03 82.43 -0.2C83.12 -0.44 83.68 -0.74 84.1 -1.12L83.57 -2.57C82.63 -1.84 81.59 -1.47 80.43 -1.47C79.48 -1.47 78.75 -1.75 78.24 -2.3C77.74 -2.85 77.48 -3.63 77.47 -4.64L84.53 -4.64C84.57 -5 84.59 -5.34 84.59 -5.66C84.59 -7.14 84.22 -8.27 83.47 -9.05ZM78.5 -7.96C79 -8.45 79.65 -8.7 80.47 -8.7C81.22 -8.7 81.8 -8.46 82.23 -7.97C82.65 -7.49 82.84 -6.77 82.82 -5.82L77.55 -5.82C77.69 -6.76 78 -7.47 78.5 -7.96Z M94.93 -9.96L86.76 -9.96L86.64 -8.37L92.25 -8.37L85.92 -1.43L85.82 0L94.35 0L94.5 -1.59L88.49 -1.59L94.82 -8.51Z M101.99 0L104.05 0L105.2 -14.4L103.13 -14.4Z M115.53 -6.72C115.53 -9.05 114.3 -10.21 111.83 -10.21C111.11 -10.21 110.37 -10.1 109.61 -9.87C108.84 -9.65 108.2 -9.35 107.69 -8.98L108.22 -7.53C108.76 -7.87 109.32 -8.13 109.89 -8.31C110.46 -8.49 111.02 -8.58 111.55 -8.58C112.3 -8.58 112.83 -8.4 113.15 -8.03C113.47 -7.67 113.6 -7.11 113.55 -6.33L113.51 -5.82L112.77 -5.82C111.31 -5.82 110.15 -5.72 109.29 -5.51C108.43 -5.31 107.8 -4.98 107.4 -4.53C107.01 -4.08 106.81 -3.48 106.81 -2.74C106.81 -1.89 107.13 -1.2 107.78 -0.66C108.43 -0.13 109.25 0.14 110.24 0.14C110.89 0.14 111.47 0 111.99 -0.3C112.5 -0.59 112.89 -1.01 113.18 -1.57L113.06 0L115.04 0L115.51 -6.11C115.52 -6.24 115.53 -6.45 115.53 -6.72ZM112.54 -2.14C112.04 -1.64 111.44 -1.39 110.73 -1.39C110.16 -1.39 109.71 -1.53 109.37 -1.81C109.04 -2.09 108.87 -2.46 108.87 -2.94C108.87 -3.36 108.98 -3.7 109.21 -3.94C109.43 -4.19 109.83 -4.37 110.39 -4.48C110.96 -4.6 111.77 -4.66 112.83 -4.66L113.4 -4.66L113.36 -4.08C113.31 -3.29 113.03 -2.65 112.54 -2.14Z M133.62 -12.68L133.76 -14.4L124.61 -14.4L123.49 0L125.57 0L126.08 -6.45L132.72 -6.45L132.86 -8.17L126.23 -8.17L126.59 -12.68Z M134.7 0L136.76 0L137.91 -14.4L135.84 -14.4Z M148.24 -6.72C148.24 -9.05 147.01 -10.21 144.54 -10.21C143.82 -10.21 143.08 -10.1 142.32 -9.87C141.55 -9.65 140.91 -9.35 140.4 -8.98L140.93 -7.53C141.47 -7.87 142.03 -8.13 142.6 -8.31C143.17 -8.49 143.73 -8.58 144.26 -8.58C145.01 -8.58 145.54 -8.4 145.86 -8.03C146.18 -7.67 146.31 -7.11 146.26 -6.33L146.22 -5.82L145.48 -5.82C144.03 -5.82 142.86 -5.72 142 -5.51C141.14 -5.31 140.51 -4.98 140.11 -4.53C139.72 -4.08 139.52 -3.48 139.52 -2.74C139.52 -1.89 139.84 -1.2 140.49 -0.66C141.14 -0.13 141.96 0.14 142.95 0.14C143.6 0.14 144.19 0 144.7 -0.3C145.21 -0.59 145.6 -1.01 145.89 -1.57L145.77 0L147.75 0L148.22 -6.11C148.23 -6.24 148.24 -6.45 148.24 -6.72ZM145.25 -2.14C144.75 -1.64 144.15 -1.39 143.44 -1.39C142.87 -1.39 142.42 -1.53 142.08 -1.81C141.75 -2.09 141.58 -2.46 141.58 -2.94C141.58 -3.36 141.69 -3.7 141.92 -3.94C142.14 -4.19 142.54 -4.37 143.1 -4.48C143.67 -4.6 144.48 -4.66 145.54 -4.66L146.11 -4.66L146.07 -4.08C146.02 -3.29 145.74 -2.65 145.25 -2.14Z M165.03 -9.33C164.49 -9.92 163.71 -10.21 162.67 -10.21C161.94 -10.21 161.28 -10.05 160.69 -9.73C160.11 -9.41 159.64 -8.96 159.28 -8.37C159.07 -8.97 158.71 -9.43 158.22 -9.74C157.73 -10.05 157.11 -10.21 156.36 -10.21C155.02 -10.21 153.99 -9.67 153.28 -8.6L153.38 -9.94L151.36 -9.94L150.57 0L152.63 0L153.08 -5.59C153.15 -6.56 153.4 -7.29 153.84 -7.79C154.29 -8.29 154.89 -8.53 155.65 -8.53C156.25 -8.53 156.7 -8.37 156.99 -8.04C157.28 -7.72 157.43 -7.21 157.43 -6.53C157.43 -6.32 157.42 -6.15 157.41 -6.04L156.94 0L159 0L159.43 -5.59C159.5 -6.56 159.75 -7.29 160.19 -7.79C160.64 -8.29 161.25 -8.53 162.02 -8.53C163.19 -8.53 163.78 -7.87 163.78 -6.53C163.78 -6.33 163.77 -6.17 163.76 -6.06L163.29 0L165.35 0L165.82 -6.15C165.83 -6.28 165.84 -6.49 165.84 -6.76C165.84 -7.89 165.57 -8.75 165.03 -9.33Z M182.63 -9.33C182.1 -9.92 181.31 -10.21 180.28 -10.21C179.54 -10.21 178.88 -10.05 178.29 -9.73C177.71 -9.41 177.24 -8.96 176.89 -8.37C176.67 -8.97 176.31 -9.43 175.82 -9.74C175.33 -10.05 174.71 -10.21 173.97 -10.21C172.62 -10.21 171.59 -9.67 170.88 -8.6L170.98 -9.94L168.96 -9.94L168.17 0L170.23 0L170.68 -5.59C170.75 -6.56 171 -7.29 171.44 -7.79C171.89 -8.29 172.49 -8.53 173.25 -8.53C173.85 -8.53 174.3 -8.37 174.59 -8.04C174.88 -7.72 175.03 -7.21 175.03 -6.53C175.03 -6.32 175.02 -6.15 175.01 -6.04L174.54 0L176.6 0L177.03 -5.59C177.1 -6.56 177.35 -7.29 177.79 -7.79C178.24 -8.29 178.85 -8.53 179.62 -8.53C180.79 -8.53 181.38 -7.87 181.38 -6.53C181.38 -6.33 181.37 -6.17 181.36 -6.06L180.89 0L182.95 0L183.42 -6.15C183.43 -6.28 183.44 -6.49 183.44 -6.76C183.44 -7.89 183.17 -8.75 182.63 -9.33Z M193.63 -9.05C192.88 -9.82 191.85 -10.21 190.55 -10.21C189.58 -10.21 188.72 -9.98 187.96 -9.52C187.21 -9.05 186.62 -8.4 186.21 -7.57C185.79 -6.73 185.58 -5.77 185.58 -4.7C185.58 -3.73 185.78 -2.88 186.19 -2.14C186.59 -1.41 187.16 -0.84 187.89 -0.45C188.63 -0.05 189.48 0.14 190.46 0.14C191.19 0.14 191.89 0.03 192.59 -0.2C193.28 -0.44 193.84 -0.74 194.26 -1.12L193.73 -2.57C192.79 -1.84 191.74 -1.47 190.59 -1.47C189.63 -1.47 188.91 -1.75 188.4 -2.3C187.9 -2.85 187.64 -3.63 187.63 -4.64L194.69 -4.64C194.73 -5 194.75 -5.34 194.75 -5.66C194.75 -7.14 194.38 -8.27 193.63 -9.05ZM188.66 -7.96C189.15 -8.45 189.81 -8.7 190.63 -8.7C191.38 -8.7 191.96 -8.46 192.38 -7.97C192.81 -7.49 193 -6.77 192.98 -5.82L187.71 -5.82C187.84 -6.76 188.16 -7.47 188.66 -7.96Z M202.63 -4.04L203.9 -4.04L205.35 -14.4L202.8 -14.4ZM201.94 -2.43L201.73 0L204.16 0L204.37 -2.43Z"></path></g></svg>