<svg xmlns="http://www.w3.org/2000/svg" version="1.1" xlink="http://www.w3.org/1999/xlink" xmlns:svgjs="http://svgjs.com/svgjs" width="100%" height="100%" viewBox="15.424386024475098 3.6550915241241455 67.9883804321289 92.03762817382812"><g fill="#7d0633"><path d="M31.516 92.523c.605 1.816-1.617 3.332-3.133 2.223-8.988-6.668-14.14-18.988-12.727-30.91.91-7.574 3.84-14.344 9.192-19.797 3.433-3.535 7.07-6.97 10.91-10C45.05 26.562 51.617 18.078 50 5.855c-.305-1.715 1.718-2.824 3.132-1.817 6.16 4.547 11.816 14.95 13.637 22.324 2.02 8.688 1.817 17.375.504 26.668-.304 1.918 2.121 3.032 3.434 1.618 2.93-3.032 4.445-6.567 5.05-10.403.305-2.019 3.134-2.222 3.84-.304 7.376 20.203 4.243 40.707-11.011 51.414-1.516 1.012-3.536-.403-3.032-2.223.203-.91.504-1.816.707-2.726v-.204c.91-6.261-1.515-11.312-5.86-15.96-8.28-9.192-9.19-10.306-10.604-20.306-.203-1.414-1.719-2.12-2.93-1.515-12.223 6.668-20.199 25.457-15.352 40.102z"></path></g></svg>