<svg xmlns="http://www.w3.org/2000/svg" version="1.1" xlink="http://www.w3.org/1999/xlink" xmlns:svgjs="http://svgjs.com/svgjs" width="100%" height="100%" viewBox="1.7300000190734863 -46.47999954223633 274.3999938964844 49.29000473022461"><g fill="#303030"><path d="M1.73 -1.38C1.89 -1.1 2.21 -0.8 2.69 -0.48C3.17 -0.16 3.55 0 3.83 0C5.78 0 7.76 -0.18 9.75 -0.54C11.74 -0.9 13.76 -1.29 15.79 -1.7C17.83 -2.12 19.87 -2.45 21.92 -2.69C23.98 -2.93 26.02 -2.95 28.06 -2.75C28.25 -3.07 28.42 -3.36 28.56 -3.62C28.7 -3.88 28.77 -4.19 28.77 -4.55C28.77 -4.98 28.68 -5.38 28.5 -5.74C28.32 -6.1 27.98 -6.28 27.46 -6.28C26.9 -6.28 26.42 -6.23 26.02 -6.13C25.62 -6.03 25.14 -5.84 24.59 -5.56C24.15 -5.48 23.5 -5.38 22.64 -5.26C21.78 -5.14 20.81 -5.01 19.71 -4.88C18.61 -4.74 17.47 -4.6 16.27 -4.46C15.07 -4.32 13.92 -4.19 12.8 -4.07C11.68 -3.95 10.7 -3.83 9.84 -3.71C8.98 -3.59 8.33 -3.51 7.9 -3.47L7.33 -3.47C7.03 -3.47 6.71 -3.48 6.37 -3.5C6.03 -3.52 5.72 -3.55 5.44 -3.59C5.16 -3.63 4.97 -3.65 4.85 -3.65L4.85 -34.7L4.43 -34.96C4.15 -35.14 3.95 -35.27 3.83 -35.35L3.41 -35.35C3.13 -35.35 2.93 -35.31 2.81 -35.23C2.69 -35.15 2.55 -34.97 2.39 -34.7C2.39 -34.02 2.4 -33.01 2.42 -31.67C2.44 -30.34 2.45 -28.83 2.45 -27.16L2.45 -16.51C2.45 -14.84 2.44 -13.33 2.42 -11.99C2.4 -10.66 2.39 -9.67 2.39 -9.03C2.39 -8.75 2.36 -8.25 2.3 -7.51C2.24 -6.77 2.17 -6 2.09 -5.2C2.01 -4.41 1.94 -3.65 1.88 -2.93C1.82 -2.21 1.77 -1.69 1.73 -1.38Z M30.15 -16.63L30.15 -15.97C30.15 -14.42 30.31 -12.7 30.63 -10.83C30.95 -8.95 31.51 -7.21 32.3 -5.59C33.1 -3.98 34.16 -2.63 35.47 -1.56C36.79 -0.48 38.44 0.06 40.44 0.06C42.75 0.06 44.82 -0.47 46.63 -1.53C48.44 -2.58 49.98 -3.96 51.24 -5.65C52.49 -7.35 53.46 -9.24 54.14 -11.34C54.81 -13.43 55.15 -15.53 55.15 -17.65C55.15 -18.92 55.07 -20.34 54.91 -21.89C54.76 -23.45 54.51 -25 54.17 -26.56C53.83 -28.12 53.38 -29.64 52.82 -31.14C52.26 -32.63 51.53 -33.96 50.64 -35.11C49.74 -36.27 48.66 -37.2 47.41 -37.9C46.15 -38.59 44.71 -38.94 43.07 -38.94C41.08 -38.94 39.4 -38.6 38.05 -37.93C36.69 -37.25 35.56 -36.36 34.67 -35.26C33.77 -34.17 33.07 -32.87 32.57 -31.38C32.07 -29.88 31.68 -28.3 31.41 -26.65C31.13 -24.99 30.9 -23.32 30.72 -21.62C30.54 -19.93 30.35 -18.27 30.15 -16.63ZM32.12 -16.09C32.12 -17.17 32.18 -18.43 32.3 -19.89C32.42 -21.35 32.62 -22.84 32.9 -24.38C33.18 -25.91 33.57 -27.43 34.07 -28.92C34.57 -30.42 35.21 -31.75 36.01 -32.93C36.81 -34.11 37.77 -35.05 38.88 -35.77C40 -36.49 41.32 -36.85 42.83 -36.85C44.98 -36.85 46.75 -36.18 48.13 -34.85C49.5 -33.51 50.56 -31.88 51.3 -29.97C52.03 -28.06 52.52 -26.03 52.76 -23.9C53 -21.76 53.12 -19.92 53.12 -18.36C53.12 -16.69 52.9 -14.9 52.46 -12.98C52.02 -11.07 51.32 -9.3 50.34 -7.69C49.36 -6.07 48.13 -4.73 46.63 -3.65C45.13 -2.57 43.33 -2.03 41.22 -2.03C39.42 -2.03 37.94 -2.5 36.76 -3.44C35.58 -4.38 34.66 -5.54 33.98 -6.94C33.3 -8.33 32.82 -9.86 32.54 -11.52C32.26 -13.17 32.12 -14.7 32.12 -16.09Z M57.25 -33.56L57.25 -31.23L81.53 -0.72C81.73 -0.4 81.87 -0.19 81.95 -0.09C82.03 0.01 82.23 0.06 82.55 0.06C82.95 0.06 83.28 -0.09 83.54 -0.39C83.8 -0.69 84.05 -1.02 84.29 -1.38C84.29 -1.62 84.32 -1.99 84.38 -2.51C84.44 -3.03 84.51 -3.59 84.59 -4.19C84.67 -4.79 84.73 -5.34 84.79 -5.86C84.85 -6.38 84.9 -6.74 84.94 -6.94C85.06 -7.42 85.23 -8.14 85.45 -9.09C85.67 -10.05 85.91 -11.15 86.17 -12.38C86.43 -13.62 86.71 -14.92 87.01 -16.27C87.31 -17.63 87.6 -18.92 87.88 -20.16C88.15 -21.4 88.41 -22.5 88.65 -23.48C88.89 -24.46 89.05 -25.16 89.13 -25.6C89.25 -25.92 89.47 -26.45 89.79 -27.19C90.11 -27.93 90.45 -28.7 90.81 -29.52C91.17 -30.34 91.51 -31.1 91.85 -31.79C92.19 -32.49 92.46 -32.98 92.66 -33.26C93.06 -34.02 93.41 -34.57 93.71 -34.9C94.01 -35.24 94.27 -35.53 94.49 -35.77C94.7 -36.01 94.86 -36.3 94.96 -36.64C95.06 -36.98 95.11 -37.57 95.11 -38.4C93.88 -38.4 92.81 -37.92 91.91 -36.94C91.02 -35.96 90.25 -34.81 89.61 -33.47C88.97 -32.13 88.45 -30.74 88.05 -29.28C87.66 -27.83 87.32 -26.6 87.04 -25.6L86.47 -23.33C86.21 -22.29 85.92 -21.12 85.6 -19.8C85.28 -18.48 84.94 -17.1 84.59 -15.64C84.23 -14.19 83.9 -12.79 83.6 -11.46C83.3 -10.12 83.02 -8.92 82.76 -7.87C82.5 -6.81 82.31 -6.04 82.19 -5.56C82.15 -5.56 82.1 -5.55 82.04 -5.53C81.98 -5.51 81.93 -5.5 81.89 -5.5C81.61 -5.5 81.42 -5.55 81.33 -5.65C81.23 -5.75 81.08 -5.94 80.88 -6.22L62.09 -29.13C61.69 -29.81 61.37 -30.43 61.11 -30.99C60.85 -31.54 60.56 -32.01 60.24 -32.39C59.92 -32.77 59.53 -33.06 59.07 -33.26C58.61 -33.46 58.01 -33.56 57.25 -33.56Z M95.11 -29.85L97.09 -3.17C97.93 -3.17 98.52 -3.4 98.88 -3.86C99.24 -4.32 99.42 -4.81 99.42 -5.32C99.42 -6.52 99.28 -7.68 99 -8.79C98.72 -9.91 98.58 -11.05 98.58 -12.2C98.58 -12.32 98.57 -12.51 98.55 -12.77C98.53 -13.03 98.53 -13.28 98.55 -13.52C98.57 -13.76 98.63 -13.98 98.73 -14.18C98.83 -14.38 99.04 -14.5 99.36 -14.54C99.92 -14.82 100.92 -15.28 102.35 -15.94C103.79 -16.6 105.32 -17.3 106.96 -18.04C108.59 -18.77 110.13 -19.47 111.56 -20.13C113 -20.79 114 -21.24 114.56 -21.48C114.87 -21.71 115.18 -21.94 115.48 -22.16C115.78 -22.38 115.95 -22.59 115.99 -22.79C116.03 -22.99 115.9 -23.15 115.6 -23.27C115.3 -23.39 114.73 -23.49 113.9 -23.57L98.64 -17.35C98.48 -17.75 98.35 -18.35 98.25 -19.17C98.15 -19.99 98.07 -20.9 98.01 -21.89C97.96 -22.89 97.92 -23.93 97.9 -25C97.88 -26.08 97.87 -27.08 97.87 -28L97.87 -31.94C98.54 -32.9 99.45 -33.68 100.59 -34.28C101.72 -34.87 102.96 -35.34 104.3 -35.68C105.63 -36.02 106.96 -36.27 108.27 -36.43C109.59 -36.59 110.77 -36.71 111.8 -36.79C111.8 -36.83 111.81 -36.93 111.83 -37.09C111.85 -37.25 111.86 -37.35 111.86 -37.39C111.86 -37.91 111.69 -38.27 111.35 -38.49C111.02 -38.71 110.61 -38.82 110.13 -38.82L109.65 -38.82C108.89 -38.7 107.98 -38.49 106.93 -38.19C105.87 -37.9 104.8 -37.59 103.73 -37.27C102.65 -36.95 101.62 -36.66 100.65 -36.4C99.67 -36.14 98.86 -36.01 98.22 -36.01C97.95 -36.01 97.76 -36.09 97.66 -36.25C97.56 -36.41 97.47 -36.58 97.39 -36.76C97.31 -36.94 97.19 -37.11 97.03 -37.27C96.87 -37.43 96.59 -37.51 96.19 -37.51C96.11 -37.51 95.93 -37.5 95.65 -37.48C95.37 -37.46 95.19 -37.43 95.11 -37.39ZM119.4 -6.22L118.56 -8.43L100.68 -3.47C99.84 -3.23 99.33 -2.9 99.15 -2.48C98.97 -2.06 98.88 -1.38 98.88 -0.42C99.72 -0.42 100.33 -0.45 100.71 -0.51C101.09 -0.57 101.42 -0.67 101.72 -0.81C102.02 -0.95 102.38 -1.13 102.8 -1.35C103.22 -1.57 103.89 -1.81 104.8 -2.09C105.16 -2.21 105.73 -2.38 106.51 -2.6C107.29 -2.82 108.15 -3.06 109.11 -3.32C110.07 -3.58 111.08 -3.86 112.13 -4.16C113.19 -4.46 114.21 -4.75 115.18 -5.02C116.16 -5.3 117.02 -5.55 117.76 -5.77C118.49 -5.99 119.04 -6.14 119.4 -6.22Z M123.53 -33.98C123.57 -33.26 123.61 -32.16 123.65 -30.69C123.69 -29.21 123.76 -27.54 123.86 -25.66C123.96 -23.79 124.06 -21.82 124.16 -19.77C124.26 -17.72 124.36 -15.74 124.46 -13.85C124.55 -11.95 124.64 -10.28 124.72 -8.82C124.8 -7.37 124.86 -6.28 124.9 -5.56C124.94 -5.32 124.99 -4.98 125.05 -4.52C125.11 -4.06 125.17 -3.58 125.23 -3.08C125.29 -2.58 125.36 -2.09 125.44 -1.62C125.52 -1.14 125.58 -0.84 125.62 -0.72C125.7 -0.4 125.84 -0.19 126.04 -0.09C126.24 0.01 126.46 0.06 126.7 0.06C127.26 0.06 127.57 -0.18 127.63 -0.66C127.69 -1.14 127.72 -1.58 127.72 -1.97C127.72 -3.25 127.63 -4.49 127.45 -5.68C127.27 -6.88 127.18 -8.12 127.18 -9.39C128.57 -9.11 129.96 -9.03 131.33 -9.15C132.71 -9.27 134.08 -9.44 135.43 -9.66C136.79 -9.88 138.13 -10.15 139.47 -10.47C140.81 -10.79 142.18 -11.01 143.6 -11.13C145.01 -11.25 146.44 -11.25 147.87 -11.13C149.31 -11.01 150.77 -10.63 152.24 -9.99C152.84 -10.15 153.23 -10.42 153.41 -10.8C153.59 -11.18 153.68 -11.61 153.68 -12.08C153.68 -12.36 153.64 -12.63 153.56 -12.89C153.48 -13.15 153.26 -13.36 152.9 -13.52L151.7 -13.52C151.18 -13.52 150.61 -13.53 149.97 -13.55C149.33 -13.57 148.73 -13.58 148.17 -13.58L146.98 -13.58C145.1 -13.58 143.54 -13.5 142.28 -13.34C141.03 -13.18 139.83 -13.01 138.69 -12.83C137.56 -12.65 136.36 -12.48 135.1 -12.32C133.85 -12.16 132.3 -12.08 130.47 -12.08L130.47 -13.16C131.26 -14.56 132.14 -16.04 133.1 -17.62C134.06 -19.19 134.97 -20.84 135.85 -22.55C136.73 -24.27 137.45 -26.01 138 -27.79C138.56 -29.56 138.84 -31.35 138.84 -33.14C138.84 -33.74 138.79 -34.44 138.69 -35.23C138.59 -36.03 138.38 -36.81 138.06 -37.57C137.75 -38.32 137.31 -38.96 136.75 -39.48C136.19 -40 135.47 -40.26 134.59 -40.26L126.28 -40.26C125.8 -40.26 125.55 -40.48 125.53 -40.92C125.51 -41.36 125.52 -41.86 125.56 -42.44C125.6 -43.02 125.56 -43.57 125.44 -44.09C125.32 -44.61 124.92 -44.94 124.25 -45.1C124.09 -45.14 123.83 -45.06 123.47 -44.86C123.11 -44.67 122.91 -44.51 122.87 -44.39C122.87 -44.23 122.86 -43.95 122.84 -43.55C122.82 -43.15 122.8 -42.74 122.78 -42.32C122.76 -41.9 122.75 -41.5 122.75 -41.1L122.75 -40.26C122.75 -39.82 122.74 -39.33 122.72 -38.79C122.7 -38.25 122.7 -37.71 122.72 -37.15C122.74 -36.59 122.81 -36.03 122.93 -35.47C123.05 -34.91 123.25 -34.42 123.53 -33.98ZM125.62 -34.7L125.62 -35.41C125.62 -35.97 125.84 -36.43 126.28 -36.79C126.72 -37.15 127.25 -37.43 127.86 -37.63C128.48 -37.82 129.11 -37.96 129.75 -38.05C130.39 -38.13 130.89 -38.17 131.24 -38.17C131.96 -38.17 132.66 -38.06 133.34 -37.84C134.02 -37.62 134.6 -37.3 135.1 -36.88C135.6 -36.46 136 -35.94 136.3 -35.32C136.6 -34.71 136.75 -34.02 136.75 -33.26C136.75 -31.43 136.42 -29.55 135.76 -27.64C135.1 -25.72 134.28 -23.84 133.28 -21.98C132.28 -20.13 131.22 -18.33 130.11 -16.6C128.99 -14.87 127.95 -13.26 127 -11.78C126.96 -12.34 126.91 -13.23 126.85 -14.45C126.79 -15.66 126.71 -17.02 126.61 -18.51C126.51 -20.01 126.41 -21.59 126.31 -23.24C126.21 -24.9 126.11 -26.48 126.01 -28C125.91 -29.51 125.83 -30.86 125.77 -32.03C125.71 -33.21 125.66 -34.1 125.62 -34.7Z M155.35 -0.72C155.35 -0.6 155.44 -0.45 155.62 -0.27C155.8 -0.09 155.95 0 156.07 0C156.23 0 156.42 -0.05 156.64 -0.15C156.86 -0.25 157.09 -0.38 157.33 -0.54C157.57 -0.7 157.76 -0.88 157.92 -1.08C158.08 -1.28 158.16 -1.5 158.16 -1.73L158.16 -2.09C158.12 -2.21 158.08 -2.39 158.04 -2.63C158 -2.87 157.93 -3.15 157.83 -3.47C157.74 -3.79 157.66 -4.07 157.6 -4.31C157.54 -4.55 157.49 -4.73 157.45 -4.85L154.69 -38.17C154.61 -38.17 154.49 -38.18 154.34 -38.19C154.18 -38.21 154.06 -38.22 153.98 -38.22C153.7 -38.22 153.42 -38.19 153.14 -38.11C152.86 -38.03 152.68 -37.79 152.6 -37.39L152.6 -36.91C152.6 -36.71 152.59 -36.48 152.57 -36.22C152.55 -35.96 152.54 -35.71 152.54 -35.47L152.54 -34.4C152.54 -34.16 152.55 -33.91 152.57 -33.65C152.59 -33.39 152.6 -33.16 152.6 -32.96L152.6 -32.54C152.64 -31.78 152.73 -30.57 152.87 -28.89C153.01 -27.22 153.17 -25.33 153.35 -23.24C153.53 -21.15 153.73 -18.94 153.95 -16.63C154.17 -14.32 154.37 -12.1 154.54 -9.99C154.72 -7.88 154.89 -5.99 155.05 -4.34C155.21 -2.68 155.31 -1.48 155.35 -0.72Z M176.47 -0.54C176.87 -0.26 177.23 -0.09 177.55 -0.03C177.86 0.03 178.14 0.03 178.38 -0.03C178.62 -0.09 178.81 -0.17 178.95 -0.27C179.09 -0.37 179.18 -0.46 179.22 -0.54L179.22 -1.32L175.75 -37.39L175.75 -38.17C175.75 -38.2 175.94 -38.28 176.32 -38.4C176.7 -38.52 177.15 -38.65 177.67 -38.79C178.18 -38.93 178.71 -39.07 179.25 -39.21C179.79 -39.35 180.24 -39.46 180.6 -39.54C181.03 -39.58 181.68 -39.67 182.54 -39.81C183.4 -39.95 184.38 -40.09 185.5 -40.23C186.62 -40.37 187.77 -40.51 188.97 -40.65C190.17 -40.79 191.31 -40.93 192.41 -41.07C193.51 -41.21 194.48 -41.33 195.34 -41.43C196.2 -41.52 196.85 -41.59 197.29 -41.63C197.53 -41.67 197.72 -41.83 197.88 -42.11C198.04 -42.39 198.13 -42.69 198.15 -43.01C198.17 -43.33 198.18 -43.63 198.18 -43.91L198.18 -44.51C196.43 -44.51 194.68 -44.36 192.95 -44.06C191.21 -43.76 189.47 -43.42 187.71 -43.04C185.96 -42.66 184.21 -42.32 182.45 -42.02C180.7 -41.72 178.92 -41.57 177.13 -41.57C176.41 -41.57 175.81 -41.7 175.33 -41.96C174.85 -42.22 174.28 -42.35 173.6 -42.35C173.08 -42.35 172.71 -42.22 172.49 -41.96C172.27 -41.7 172.2 -41.14 172.28 -40.26L160.56 -37.39C160.16 -37.35 159.93 -37.19 159.87 -36.91C159.81 -36.63 159.78 -36.35 159.78 -36.07C159.78 -35.47 159.94 -35.08 160.26 -34.9C160.58 -34.73 161 -34.64 161.51 -34.64C162.51 -34.64 163.45 -34.79 164.33 -35.08C165.2 -35.38 166.09 -35.71 166.99 -36.07C167.88 -36.43 168.77 -36.76 169.65 -37.06C170.53 -37.36 171.44 -37.51 172.4 -37.51C172.88 -37.51 173.18 -37.43 173.3 -37.27C173.42 -37.11 173.56 -36.71 173.72 -36.07C174.24 -33.28 174.66 -30.38 175 -27.37C175.34 -24.36 175.6 -21.33 175.78 -18.27C175.96 -15.22 176.09 -12.2 176.17 -9.21C176.25 -6.22 176.35 -3.33 176.47 -0.54Z M192.56 -11.07C192.68 -9.83 192.97 -8.55 193.43 -7.24C193.89 -5.92 194.48 -4.73 195.22 -3.65C195.96 -2.57 196.87 -1.68 197.94 -0.99C199.02 -0.29 200.26 0.06 201.65 0.06C203.53 0.06 205.13 -0.46 206.47 -1.5C207.8 -2.53 208.9 -3.89 209.76 -5.56C210.62 -7.24 211.29 -9.1 211.79 -11.16C212.29 -13.21 212.66 -15.25 212.9 -17.29C213.14 -19.32 213.29 -21.25 213.35 -23.06C213.41 -24.88 213.44 -26.36 213.44 -27.52L213.44 -29.73C213.44 -30.41 213.41 -31.07 213.35 -31.7C213.29 -32.34 213.22 -33.01 213.14 -33.71C213.06 -34.41 212.9 -35.19 212.66 -36.07C212.58 -36.07 212.46 -36.08 212.3 -36.1C212.14 -36.12 212.02 -36.13 211.94 -36.13C211.58 -36.13 211.25 -36.06 210.95 -35.92C210.66 -35.78 210.51 -35.49 210.51 -35.05C210.51 -33.22 210.66 -31.42 210.95 -29.64C211.25 -27.87 211.4 -25.98 211.4 -23.99C211.4 -23.23 211.35 -22.18 211.25 -20.85C211.15 -19.51 210.97 -18.06 210.72 -16.48C210.46 -14.91 210.12 -13.3 209.7 -11.66C209.28 -10.03 208.73 -8.54 208.05 -7.21C207.38 -5.87 206.55 -4.79 205.57 -3.95C204.59 -3.11 203.45 -2.69 202.13 -2.69C200.58 -2.69 199.3 -3.15 198.3 -4.07C197.31 -4.98 196.49 -6.11 195.85 -7.45C195.21 -8.78 194.76 -10.23 194.5 -11.78C194.25 -13.34 194.06 -14.72 193.94 -15.91C193.9 -16.43 193.84 -17.24 193.76 -18.33C193.68 -19.43 193.59 -20.66 193.49 -22.01C193.39 -23.37 193.3 -24.82 193.22 -26.35C193.14 -27.89 193.05 -29.33 192.95 -30.69C192.85 -32.04 192.77 -33.27 192.71 -34.37C192.65 -35.46 192.6 -36.27 192.56 -36.79L190.41 -36.79C190.41 -36.67 190.42 -36.42 190.44 -36.04C190.46 -35.66 190.47 -35.43 190.47 -35.35C190.51 -34.76 190.59 -33.82 190.71 -32.54C190.83 -31.27 190.95 -29.83 191.09 -28.23C191.23 -26.64 191.37 -24.96 191.51 -23.21C191.65 -21.46 191.79 -19.78 191.93 -18.19C192.07 -16.59 192.2 -15.16 192.32 -13.91C192.44 -12.65 192.52 -11.7 192.56 -11.07Z M216.55 2.81C216.79 2.81 217.01 2.75 217.21 2.63C217.41 2.51 217.52 2.31 217.56 2.03L221.09 -11.78C221.17 -11.86 221.72 -12.02 222.74 -12.26C223.76 -12.5 224.96 -12.77 226.36 -13.07C227.75 -13.37 229.18 -13.65 230.64 -13.91C232.09 -14.17 233.28 -14.38 234.19 -14.54C234.23 -14.54 234.38 -14.56 234.64 -14.6C234.9 -14.64 235.19 -14.67 235.51 -14.69C235.83 -14.71 236.14 -14.73 236.44 -14.75C236.74 -14.77 236.97 -14.78 237.13 -14.78C237.41 -14.78 237.79 -14.75 238.29 -14.69C238.79 -14.63 239.04 -14.58 239.04 -14.54L243.23 -4.85C243.43 -4.37 243.79 -4.13 244.3 -4.13C244.7 -4.13 244.98 -4.28 245.14 -4.58C245.3 -4.88 245.38 -5.22 245.38 -5.62L245.38 -5.98C245.38 -6.14 245.36 -6.24 245.32 -6.28L228.69 -44.39C228.33 -44.67 228.03 -44.99 227.79 -45.37C227.55 -45.75 227.38 -46.12 227.26 -46.48C226.98 -46.28 226.71 -45.97 226.45 -45.55C226.19 -45.13 226.02 -44.75 225.94 -44.39L215.47 0C215.47 0.2 215.45 0.47 215.41 0.81C215.37 1.15 215.38 1.47 215.44 1.76C215.5 2.06 215.61 2.31 215.77 2.51C215.93 2.71 216.19 2.81 216.55 2.81ZM227.26 -40.26L237.01 -19.44C237.05 -19.36 237.08 -19.23 237.1 -19.05C237.12 -18.87 237.13 -18.74 237.13 -18.66C237.13 -18.34 236.83 -18.04 236.23 -17.74C235.63 -17.44 234.86 -17.15 233.93 -16.87C232.99 -16.59 231.93 -16.35 230.76 -16.15C229.58 -15.95 228.42 -15.76 227.29 -15.58C226.15 -15.4 225.08 -15.27 224.09 -15.19C223.09 -15.11 222.31 -15.07 221.75 -15.07C221.75 -15.35 221.84 -15.99 222.02 -16.99C222.2 -17.99 222.42 -19.16 222.68 -20.52C222.94 -21.87 223.25 -23.37 223.61 -25L225.7 -34.4C226.02 -35.87 226.32 -37.13 226.6 -38.17C226.64 -38.24 226.68 -38.38 226.72 -38.58C226.76 -38.78 226.82 -38.99 226.9 -39.21C226.98 -39.43 227.05 -39.63 227.11 -39.81Z M249.09 -1.38C249.25 -1.1 249.57 -0.8 250.05 -0.48C250.53 -0.16 250.9 0 251.18 0C253.14 0 255.11 -0.18 257.11 -0.54C259.1 -0.9 261.11 -1.29 263.15 -1.7C265.18 -2.12 267.23 -2.45 269.28 -2.69C271.33 -2.93 273.38 -2.95 275.41 -2.75C275.61 -3.07 275.78 -3.36 275.92 -3.62C276.06 -3.88 276.13 -4.19 276.13 -4.55C276.13 -4.98 276.04 -5.38 275.86 -5.74C275.68 -6.1 275.33 -6.28 274.81 -6.28C274.25 -6.28 273.78 -6.23 273.38 -6.13C272.98 -6.03 272.5 -5.84 271.94 -5.56C271.5 -5.48 270.85 -5.38 270 -5.26C269.14 -5.14 268.16 -5.01 267.07 -4.88C265.97 -4.74 264.82 -4.6 263.63 -4.46C262.43 -4.32 261.27 -4.19 260.16 -4.07C259.04 -3.95 258.05 -3.83 257.2 -3.71C256.34 -3.59 255.69 -3.51 255.25 -3.47L254.68 -3.47C254.38 -3.47 254.06 -3.48 253.73 -3.5C253.39 -3.52 253.08 -3.55 252.8 -3.59C252.52 -3.63 252.32 -3.65 252.2 -3.65L252.2 -34.7L251.78 -34.96C251.5 -35.14 251.3 -35.27 251.18 -35.35L250.76 -35.35C250.49 -35.35 250.29 -35.31 250.17 -35.23C250.05 -35.15 249.91 -34.97 249.75 -34.7C249.75 -34.02 249.76 -33.01 249.78 -31.67C249.8 -30.34 249.81 -28.83 249.81 -27.16L249.81 -16.51C249.81 -14.84 249.8 -13.33 249.78 -11.99C249.76 -10.66 249.75 -9.67 249.75 -9.03C249.75 -8.75 249.72 -8.25 249.66 -7.51C249.6 -6.77 249.53 -6 249.45 -5.2C249.37 -4.41 249.3 -3.65 249.24 -2.93C249.18 -2.21 249.13 -1.69 249.09 -1.38Z"></path></g></svg>